# xmcd CD database file
#
# Track frame offsets:
#	150
#	16433
#	29262
#	40163
#	50414
#	61831
#	75470
#	87396
#	99717
#	112700
#	124396
#	136321
#	153649
#	165425
#	181927
#	193366
#	212898
#	225674
#	236715
#	248929
#	264544
#	276968
#	293425
#	304919
#
# Disc length: 4242 seconds
#
# Revision: 1
# Processed by: cddbd v1.5.2PL0 Copyright (c) Steve Scherf et al.
# Submitted via: CDex 1.75
#
DISCID=51109018
DTITLE=Frank Sinatra - Sinatra Swings
DYEAR=2007
DGENRE=Blues
TTITLE0=I've Got You Under My Skin
TTITLE1=You Make Me Feel So Young
TTITLE2=Too Marvellous For Words
TTITLE3=You're Getting To Be A Habit With Me
TTITLE4=What Is This Thing Called Love?
TTITLE5=Makin' Whoopee
TTITLE6=Anything Goes
TTITLE7=You Brought A New Kind Of Love To Me
TTITLE8=Dancing On The Ceiling
TTITLE9=Love Is Here To Stay
TTITLE10=Pennies From Heaven
TTITLE11=Old Devil Moon
TTITLE12=It Never Entered My Mind
TTITLE13=Ill Wind
TTITLE14=It Happened In Monterey
TTITLE15=We'll Be Together Again
TTITLE16=Swingin' Down The Lane
TTITLE17=I Thought About You
TTITLE18=How About You
TTITLE19=Mood Indigo
TTITLE20=Deep In A Dream
TTITLE21=I Get Along Without You Very Well
TTITLE22=Glad To Be Unhappy
TTITLE23=In The Wee Small Hours Of The Morning
EXTD=YEAR: 2007
EXTT0=
EXTT1=
EXTT2=
EXTT3=
EXTT4=
EXTT5=
EXTT6=
EXTT7=
EXTT8=
EXTT9=
EXTT10=
EXTT11=
EXTT12=
EXTT13=
EXTT14=
EXTT15=
EXTT16=
EXTT17=
EXTT18=
EXTT19=
EXTT20=
EXTT21=
EXTT22=
EXTT23=
PLAYORDER=
